<mxfile host="Electron" agent="Mozilla/5.0 (Macintosh; Intel Mac OS X 10_15_7) AppleWebKit/537.36 (KHTML, like Gecko) draw.io/28.1.2 Chrome/138.0.7204.243 Electron/37.4.0 Safari/537.36" version="28.1.2">
  <diagram name="Page-1" id="SCVPMUwmAenFDCZmXWhQ">
    <mxGraphModel dx="1027" dy="1572" grid="1" gridSize="10" guides="1" tooltips="1" connect="1" arrows="1" fold="1" page="1" pageScale="1" pageWidth="900" pageHeight="900" math="0" shadow="0">
      <root>
        <mxCell id="0" />
        <mxCell id="1" parent="0" />
        <mxCell id="OuTfgces5lwV_Rp-8tuZ-1" value="&lt;b&gt;ibd&lt;/b&gt; [модель] ИС пациента [Дневник мигрени]" style="shape=umlFrame;whiteSpace=wrap;html=1;pointerEvents=0;width=280;height=20;" vertex="1" parent="1">
          <mxGeometry x="140" y="-30" width="790" height="630" as="geometry" />
        </mxCell>
        <mxCell id="OuTfgces5lwV_Rp-8tuZ-25" value="&lt;p style=&quot;margin:0px;margin-top:4px;text-align:center;&quot;&gt;&lt;b&gt;Ядро ИС (backend)&lt;/b&gt;&lt;/p&gt;&lt;hr size=&quot;1&quot; style=&quot;border-style:solid;&quot;&gt;&lt;div style=&quot;height:2px;&quot;&gt;&lt;/div&gt;" style="verticalAlign=top;align=left;overflow=fill;html=1;whiteSpace=wrap;" vertex="1" parent="1">
          <mxGeometry x="430" y="100" width="410" height="390" as="geometry" />
        </mxCell>
        <mxCell id="OuTfgces5lwV_Rp-8tuZ-26" value="&lt;p style=&quot;margin:0px;margin-top:4px;text-align:center;&quot;&gt;&lt;b&gt;База данных&lt;/b&gt;&lt;/p&gt;&lt;hr size=&quot;1&quot; style=&quot;border-style:solid;&quot;&gt;&lt;div style=&quot;height:2px;&quot;&gt;&lt;/div&gt;" style="verticalAlign=top;align=left;overflow=fill;html=1;whiteSpace=wrap;" vertex="1" parent="1">
          <mxGeometry x="230" y="380" width="160" height="210" as="geometry" />
        </mxCell>
        <mxCell id="OuTfgces5lwV_Rp-8tuZ-27" value="&lt;p style=&quot;margin:0px;margin-top:4px;text-align:center;&quot;&gt;&lt;b&gt;Пользовательский интерфейс&lt;/b&gt;&lt;/p&gt;&lt;hr size=&quot;1&quot; style=&quot;border-style:solid;&quot;&gt;&lt;div style=&quot;height:2px;&quot;&gt;&lt;/div&gt;" style="verticalAlign=top;align=left;overflow=fill;html=1;whiteSpace=wrap;" vertex="1" parent="1">
          <mxGeometry x="170" y="170" width="220" height="200" as="geometry" />
        </mxCell>
        <mxCell id="OuTfgces5lwV_Rp-8tuZ-28" value="&lt;p style=&quot;margin:0px;margin-top:4px;text-align:center;&quot;&gt;&lt;b&gt;ORM для БД&lt;/b&gt;&lt;/p&gt;&lt;hr size=&quot;1&quot; style=&quot;border-style:solid;&quot;&gt;&lt;div style=&quot;height:2px;&quot;&gt;&lt;/div&gt;" style="verticalAlign=top;align=left;overflow=fill;html=1;whiteSpace=wrap;" vertex="1" parent="1">
          <mxGeometry x="477" y="395" width="100" height="85" as="geometry" />
        </mxCell>
        <mxCell id="OuTfgces5lwV_Rp-8tuZ-29" value="&lt;p style=&quot;margin:0px;margin-top:4px;text-align:center;&quot;&gt;&lt;b&gt;Пользовательские действия&lt;/b&gt;&lt;/p&gt;&lt;hr size=&quot;1&quot; style=&quot;border-style:solid;&quot;&gt;&lt;div style=&quot;height:2px;&quot;&gt;&lt;/div&gt;" style="verticalAlign=top;align=left;overflow=fill;html=1;whiteSpace=wrap;" vertex="1" parent="1">
          <mxGeometry x="497" y="140" width="130" height="144" as="geometry" />
        </mxCell>
        <mxCell id="OuTfgces5lwV_Rp-8tuZ-34" style="edgeStyle=orthogonalEdgeStyle;rounded=0;orthogonalLoop=1;jettySize=auto;html=1;entryX=0;entryY=0.5;entryDx=0;entryDy=0;endArrow=none;endFill=0;" edge="1" parent="1" source="OuTfgces5lwV_Rp-8tuZ-30" target="OuTfgces5lwV_Rp-8tuZ-31">
          <mxGeometry relative="1" as="geometry" />
        </mxCell>
        <mxCell id="OuTfgces5lwV_Rp-8tuZ-35" value="Внести данные" style="edgeLabel;html=1;align=center;verticalAlign=middle;resizable=0;points=[];" vertex="1" connectable="0" parent="OuTfgces5lwV_Rp-8tuZ-34">
          <mxGeometry x="0.0454" y="1" relative="1" as="geometry">
            <mxPoint x="-2" y="9" as="offset" />
          </mxGeometry>
        </mxCell>
        <mxCell id="OuTfgces5lwV_Rp-8tuZ-30" value="" style="whiteSpace=wrap;html=1;aspect=fixed;" vertex="1" parent="1">
          <mxGeometry x="383" y="257.5" width="15" height="15" as="geometry" />
        </mxCell>
        <mxCell id="OuTfgces5lwV_Rp-8tuZ-31" value="" style="whiteSpace=wrap;html=1;aspect=fixed;" vertex="1" parent="1">
          <mxGeometry x="490" y="258" width="15" height="15" as="geometry" />
        </mxCell>
        <mxCell id="OuTfgces5lwV_Rp-8tuZ-32" style="edgeStyle=orthogonalEdgeStyle;rounded=0;orthogonalLoop=1;jettySize=auto;html=1;entryX=1;entryY=0.5;entryDx=0;entryDy=0;exitX=0;exitY=0.5;exitDx=0;exitDy=0;" edge="1" parent="1" source="OuTfgces5lwV_Rp-8tuZ-30" target="OuTfgces5lwV_Rp-8tuZ-30">
          <mxGeometry relative="1" as="geometry" />
        </mxCell>
        <mxCell id="OuTfgces5lwV_Rp-8tuZ-33" style="edgeStyle=orthogonalEdgeStyle;rounded=0;orthogonalLoop=1;jettySize=auto;html=1;entryX=1;entryY=0.5;entryDx=0;entryDy=0;exitX=0;exitY=0.5;exitDx=0;exitDy=0;" edge="1" parent="1" source="OuTfgces5lwV_Rp-8tuZ-31" target="OuTfgces5lwV_Rp-8tuZ-31">
          <mxGeometry relative="1" as="geometry" />
        </mxCell>
        <mxCell id="OuTfgces5lwV_Rp-8tuZ-36" value="" style="whiteSpace=wrap;html=1;aspect=fixed;" vertex="1" parent="1">
          <mxGeometry x="383" y="443" width="15" height="15" as="geometry" />
        </mxCell>
        <mxCell id="OuTfgces5lwV_Rp-8tuZ-37" style="edgeStyle=orthogonalEdgeStyle;rounded=0;orthogonalLoop=1;jettySize=auto;html=1;entryX=1;entryY=0.5;entryDx=0;entryDy=0;exitX=0;exitY=0.5;exitDx=0;exitDy=0;startArrow=open;startFill=0;endArrow=open;endFill=0;startSize=4;endSize=4;sourcePerimeterSpacing=0;" edge="1" parent="1" source="OuTfgces5lwV_Rp-8tuZ-36" target="OuTfgces5lwV_Rp-8tuZ-36">
          <mxGeometry relative="1" as="geometry" />
        </mxCell>
        <mxCell id="OuTfgces5lwV_Rp-8tuZ-42" style="edgeStyle=orthogonalEdgeStyle;rounded=0;orthogonalLoop=1;jettySize=auto;html=1;entryX=1;entryY=0.5;entryDx=0;entryDy=0;endArrow=none;endFill=0;" edge="1" parent="1" source="OuTfgces5lwV_Rp-8tuZ-38" target="OuTfgces5lwV_Rp-8tuZ-36">
          <mxGeometry relative="1" as="geometry" />
        </mxCell>
        <mxCell id="OuTfgces5lwV_Rp-8tuZ-43" value="Запросы" style="edgeLabel;html=1;align=center;verticalAlign=middle;resizable=0;points=[];" vertex="1" connectable="0" parent="OuTfgces5lwV_Rp-8tuZ-42">
          <mxGeometry x="0.0422" y="-1" relative="1" as="geometry">
            <mxPoint y="9" as="offset" />
          </mxGeometry>
        </mxCell>
        <mxCell id="OuTfgces5lwV_Rp-8tuZ-38" value="" style="whiteSpace=wrap;html=1;aspect=fixed;" vertex="1" parent="1">
          <mxGeometry x="470" y="443" width="15" height="15" as="geometry" />
        </mxCell>
        <mxCell id="OuTfgces5lwV_Rp-8tuZ-39" style="edgeStyle=orthogonalEdgeStyle;rounded=0;orthogonalLoop=1;jettySize=auto;html=1;entryX=1;entryY=0.5;entryDx=0;entryDy=0;exitX=0;exitY=0.5;exitDx=0;exitDy=0;startArrow=open;startFill=0;endArrow=open;endFill=0;startSize=4;endSize=4;sourcePerimeterSpacing=0;" edge="1" parent="1" source="OuTfgces5lwV_Rp-8tuZ-38" target="OuTfgces5lwV_Rp-8tuZ-38">
          <mxGeometry relative="1" as="geometry" />
        </mxCell>
        <mxCell id="OuTfgces5lwV_Rp-8tuZ-44" style="edgeStyle=orthogonalEdgeStyle;rounded=0;orthogonalLoop=1;jettySize=auto;html=1;entryX=0;entryY=0.5;entryDx=0;entryDy=0;endArrow=none;endFill=0;" edge="1" parent="1" source="OuTfgces5lwV_Rp-8tuZ-46" target="OuTfgces5lwV_Rp-8tuZ-47">
          <mxGeometry relative="1" as="geometry" />
        </mxCell>
        <mxCell id="OuTfgces5lwV_Rp-8tuZ-45" value="Синхронизация" style="edgeLabel;html=1;align=center;verticalAlign=middle;resizable=0;points=[];" vertex="1" connectable="0" parent="OuTfgces5lwV_Rp-8tuZ-44">
          <mxGeometry x="0.0454" y="1" relative="1" as="geometry">
            <mxPoint x="-2" y="-9" as="offset" />
          </mxGeometry>
        </mxCell>
        <mxCell id="OuTfgces5lwV_Rp-8tuZ-46" value="" style="whiteSpace=wrap;html=1;aspect=fixed;" vertex="1" parent="1">
          <mxGeometry x="383" y="230" width="15" height="15" as="geometry" />
        </mxCell>
        <mxCell id="OuTfgces5lwV_Rp-8tuZ-47" value="" style="whiteSpace=wrap;html=1;aspect=fixed;" vertex="1" parent="1">
          <mxGeometry x="490" y="230.5" width="15" height="15" as="geometry" />
        </mxCell>
        <mxCell id="OuTfgces5lwV_Rp-8tuZ-48" style="edgeStyle=orthogonalEdgeStyle;rounded=0;orthogonalLoop=1;jettySize=auto;html=1;entryX=1;entryY=0.5;entryDx=0;entryDy=0;exitX=0;exitY=0.5;exitDx=0;exitDy=0;startArrow=classic;startFill=1;endArrow=none;endFill=0;" edge="1" parent="1" source="OuTfgces5lwV_Rp-8tuZ-46" target="OuTfgces5lwV_Rp-8tuZ-46">
          <mxGeometry relative="1" as="geometry" />
        </mxCell>
        <mxCell id="OuTfgces5lwV_Rp-8tuZ-49" style="edgeStyle=orthogonalEdgeStyle;rounded=0;orthogonalLoop=1;jettySize=auto;html=1;entryX=1;entryY=0.5;entryDx=0;entryDy=0;exitX=0;exitY=0.5;exitDx=0;exitDy=0;startArrow=classic;startFill=1;endArrow=none;endFill=0;" edge="1" parent="1" source="OuTfgces5lwV_Rp-8tuZ-47" target="OuTfgces5lwV_Rp-8tuZ-47">
          <mxGeometry relative="1" as="geometry" />
        </mxCell>
        <mxCell id="OuTfgces5lwV_Rp-8tuZ-50" value="&lt;p style=&quot;margin:0px;margin-top:4px;text-align:center;&quot;&gt;&lt;b&gt;API для работы с&amp;nbsp;записями&lt;/b&gt;&lt;/p&gt;&lt;hr size=&quot;1&quot; style=&quot;border-style:solid;&quot;&gt;&lt;div style=&quot;height:2px;&quot;&gt;&lt;/div&gt;" style="verticalAlign=top;align=left;overflow=fill;html=1;whiteSpace=wrap;" vertex="1" parent="1">
          <mxGeometry x="696" y="145.1" width="130" height="116" as="geometry" />
        </mxCell>
        <mxCell id="OuTfgces5lwV_Rp-8tuZ-51" value="Внутренний класс" style="rounded=0;whiteSpace=wrap;html=1;dashed=1;dashPattern=8 8;" vertex="1" parent="1">
          <mxGeometry x="724" y="198.6" width="80" height="45" as="geometry" />
        </mxCell>
        <mxCell id="OuTfgces5lwV_Rp-8tuZ-56" style="edgeStyle=orthogonalEdgeStyle;rounded=0;orthogonalLoop=1;jettySize=auto;html=1;entryX=0;entryY=0.5;entryDx=0;entryDy=0;endArrow=none;endFill=0;" edge="1" parent="1" source="OuTfgces5lwV_Rp-8tuZ-52" target="OuTfgces5lwV_Rp-8tuZ-54">
          <mxGeometry relative="1" as="geometry" />
        </mxCell>
        <mxCell id="OuTfgces5lwV_Rp-8tuZ-57" value="Команда" style="edgeLabel;html=1;align=center;verticalAlign=middle;resizable=0;points=[];" vertex="1" connectable="0" parent="OuTfgces5lwV_Rp-8tuZ-56">
          <mxGeometry x="-0.188" relative="1" as="geometry">
            <mxPoint x="4" y="-10" as="offset" />
          </mxGeometry>
        </mxCell>
        <mxCell id="OuTfgces5lwV_Rp-8tuZ-52" value="" style="whiteSpace=wrap;html=1;aspect=fixed;" vertex="1" parent="1">
          <mxGeometry x="620" y="192.85" width="15" height="15" as="geometry" />
        </mxCell>
        <mxCell id="OuTfgces5lwV_Rp-8tuZ-53" style="edgeStyle=orthogonalEdgeStyle;rounded=0;orthogonalLoop=1;jettySize=auto;html=1;entryX=1;entryY=0.5;entryDx=0;entryDy=0;exitX=0;exitY=0.5;exitDx=0;exitDy=0;" edge="1" parent="1" source="OuTfgces5lwV_Rp-8tuZ-52" target="OuTfgces5lwV_Rp-8tuZ-52">
          <mxGeometry relative="1" as="geometry" />
        </mxCell>
        <mxCell id="OuTfgces5lwV_Rp-8tuZ-54" value="" style="whiteSpace=wrap;html=1;aspect=fixed;" vertex="1" parent="1">
          <mxGeometry x="689" y="192.6" width="15" height="15" as="geometry" />
        </mxCell>
        <mxCell id="OuTfgces5lwV_Rp-8tuZ-55" style="edgeStyle=orthogonalEdgeStyle;rounded=0;orthogonalLoop=1;jettySize=auto;html=1;entryX=1;entryY=0.5;entryDx=0;entryDy=0;exitX=0;exitY=0.5;exitDx=0;exitDy=0;" edge="1" parent="1" source="OuTfgces5lwV_Rp-8tuZ-54" target="OuTfgces5lwV_Rp-8tuZ-54">
          <mxGeometry relative="1" as="geometry" />
        </mxCell>
        <mxCell id="OuTfgces5lwV_Rp-8tuZ-62" style="edgeStyle=orthogonalEdgeStyle;rounded=1;orthogonalLoop=1;jettySize=auto;html=1;entryX=1;entryY=0.5;entryDx=0;entryDy=0;exitX=0.5;exitY=1;exitDx=0;exitDy=0;endArrow=none;endFill=0;curved=0;" edge="1" parent="1" source="OuTfgces5lwV_Rp-8tuZ-58" target="OuTfgces5lwV_Rp-8tuZ-60">
          <mxGeometry relative="1" as="geometry" />
        </mxCell>
        <mxCell id="OuTfgces5lwV_Rp-8tuZ-63" value="Вызов &lt;br&gt;изменения &lt;br&gt;данных в БД" style="edgeLabel;html=1;align=right;verticalAlign=middle;resizable=0;points=[];" vertex="1" connectable="0" parent="OuTfgces5lwV_Rp-8tuZ-62">
          <mxGeometry x="-0.859" relative="1" as="geometry">
            <mxPoint x="-4" y="140" as="offset" />
          </mxGeometry>
        </mxCell>
        <mxCell id="OuTfgces5lwV_Rp-8tuZ-58" value="" style="whiteSpace=wrap;html=1;aspect=fixed;" vertex="1" parent="1">
          <mxGeometry x="801" y="254.1" width="15" height="15" as="geometry" />
        </mxCell>
        <mxCell id="OuTfgces5lwV_Rp-8tuZ-59" style="edgeStyle=orthogonalEdgeStyle;rounded=0;orthogonalLoop=1;jettySize=auto;html=1;entryX=0.5;entryY=1;entryDx=0;entryDy=0;exitX=0.5;exitY=0;exitDx=0;exitDy=0;" edge="1" parent="1" source="OuTfgces5lwV_Rp-8tuZ-58" target="OuTfgces5lwV_Rp-8tuZ-58">
          <mxGeometry relative="1" as="geometry" />
        </mxCell>
        <mxCell id="OuTfgces5lwV_Rp-8tuZ-140" style="edgeStyle=orthogonalEdgeStyle;rounded=1;orthogonalLoop=1;jettySize=auto;html=1;entryX=0.5;entryY=1;entryDx=0;entryDy=0;curved=0;endArrow=none;endFill=0;" edge="1" parent="1" source="OuTfgces5lwV_Rp-8tuZ-60" target="OuTfgces5lwV_Rp-8tuZ-135">
          <mxGeometry relative="1" as="geometry" />
        </mxCell>
        <mxCell id="OuTfgces5lwV_Rp-8tuZ-60" value="" style="whiteSpace=wrap;html=1;aspect=fixed;" vertex="1" parent="1">
          <mxGeometry x="569" y="456.5" width="15" height="15" as="geometry" />
        </mxCell>
        <mxCell id="OuTfgces5lwV_Rp-8tuZ-61" style="edgeStyle=orthogonalEdgeStyle;rounded=0;orthogonalLoop=1;jettySize=auto;html=1;entryX=1;entryY=0.5;entryDx=0;entryDy=0;exitX=0;exitY=0.5;exitDx=0;exitDy=0;startArrow=classic;startFill=1;endArrow=none;endFill=0;" edge="1" parent="1" source="OuTfgces5lwV_Rp-8tuZ-60" target="OuTfgces5lwV_Rp-8tuZ-60">
          <mxGeometry relative="1" as="geometry" />
        </mxCell>
        <mxCell id="OuTfgces5lwV_Rp-8tuZ-64" value="&lt;p style=&quot;margin:0px;margin-top:4px;text-align:center;&quot;&gt;&lt;b&gt;Локальное хранилище&lt;/b&gt;&lt;/p&gt;&lt;hr size=&quot;1&quot; style=&quot;border-style:solid;&quot;&gt;&lt;div style=&quot;height:2px;&quot;&gt;&lt;/div&gt;" style="verticalAlign=top;align=left;overflow=fill;html=1;whiteSpace=wrap;" vertex="1" parent="1">
          <mxGeometry x="235.25" y="270" width="90" height="90" as="geometry" />
        </mxCell>
        <mxCell id="OuTfgces5lwV_Rp-8tuZ-87" style="edgeStyle=orthogonalEdgeStyle;rounded=0;orthogonalLoop=1;jettySize=auto;html=1;entryX=0;entryY=0.5;entryDx=0;entryDy=0;endArrow=none;endFill=0;" edge="1" parent="1" source="OuTfgces5lwV_Rp-8tuZ-65" target="OuTfgces5lwV_Rp-8tuZ-82">
          <mxGeometry relative="1" as="geometry" />
        </mxCell>
        <mxCell id="OuTfgces5lwV_Rp-8tuZ-65" value="" style="whiteSpace=wrap;html=1;aspect=fixed;" vertex="1" parent="1">
          <mxGeometry x="162" y="327.25" width="15" height="15" as="geometry" />
        </mxCell>
        <mxCell id="OuTfgces5lwV_Rp-8tuZ-66" style="edgeStyle=orthogonalEdgeStyle;rounded=0;orthogonalLoop=1;jettySize=auto;html=1;entryX=1;entryY=0.5;entryDx=0;entryDy=0;exitX=0;exitY=0.5;exitDx=0;exitDy=0;" edge="1" parent="1" source="OuTfgces5lwV_Rp-8tuZ-65" target="OuTfgces5lwV_Rp-8tuZ-65">
          <mxGeometry relative="1" as="geometry" />
        </mxCell>
        <mxCell id="OuTfgces5lwV_Rp-8tuZ-73" style="edgeStyle=orthogonalEdgeStyle;rounded=0;orthogonalLoop=1;jettySize=auto;html=1;entryX=1;entryY=0.5;entryDx=0;entryDy=0;endArrow=none;endFill=0;" edge="1" parent="1" source="OuTfgces5lwV_Rp-8tuZ-67" target="OuTfgces5lwV_Rp-8tuZ-71">
          <mxGeometry relative="1" as="geometry" />
        </mxCell>
        <mxCell id="OuTfgces5lwV_Rp-8tuZ-67" value="" style="whiteSpace=wrap;html=1;aspect=fixed;" vertex="1" parent="1">
          <mxGeometry x="162" y="299.75" width="15" height="15" as="geometry" />
        </mxCell>
        <mxCell id="OuTfgces5lwV_Rp-8tuZ-68" style="edgeStyle=orthogonalEdgeStyle;rounded=0;orthogonalLoop=1;jettySize=auto;html=1;entryX=1;entryY=0.5;entryDx=0;entryDy=0;exitX=0;exitY=0.5;exitDx=0;exitDy=0;startArrow=classic;startFill=1;endArrow=none;endFill=0;" edge="1" parent="1" source="OuTfgces5lwV_Rp-8tuZ-67" target="OuTfgces5lwV_Rp-8tuZ-67">
          <mxGeometry relative="1" as="geometry" />
        </mxCell>
        <mxCell id="OuTfgces5lwV_Rp-8tuZ-74" style="edgeStyle=orthogonalEdgeStyle;rounded=0;orthogonalLoop=1;jettySize=auto;html=1;entryX=0;entryY=0.5;entryDx=0;entryDy=0;endArrow=none;endFill=0;" edge="1" parent="1" source="OuTfgces5lwV_Rp-8tuZ-69" target="OuTfgces5lwV_Rp-8tuZ-65">
          <mxGeometry relative="1" as="geometry" />
        </mxCell>
        <mxCell id="OuTfgces5lwV_Rp-8tuZ-69" value="" style="whiteSpace=wrap;html=1;aspect=fixed;" vertex="1" parent="1">
          <mxGeometry x="132" y="327.25" width="15" height="15" as="geometry" />
        </mxCell>
        <mxCell id="OuTfgces5lwV_Rp-8tuZ-70" style="edgeStyle=orthogonalEdgeStyle;rounded=0;orthogonalLoop=1;jettySize=auto;html=1;entryX=1;entryY=0.5;entryDx=0;entryDy=0;exitX=0;exitY=0.5;exitDx=0;exitDy=0;" edge="1" parent="1" source="OuTfgces5lwV_Rp-8tuZ-69" target="OuTfgces5lwV_Rp-8tuZ-69">
          <mxGeometry relative="1" as="geometry" />
        </mxCell>
        <mxCell id="OuTfgces5lwV_Rp-8tuZ-71" value="" style="whiteSpace=wrap;html=1;aspect=fixed;" vertex="1" parent="1">
          <mxGeometry x="132" y="299.75" width="15" height="15" as="geometry" />
        </mxCell>
        <mxCell id="OuTfgces5lwV_Rp-8tuZ-72" style="edgeStyle=orthogonalEdgeStyle;rounded=0;orthogonalLoop=1;jettySize=auto;html=1;entryX=1;entryY=0.5;entryDx=0;entryDy=0;exitX=0;exitY=0.5;exitDx=0;exitDy=0;startArrow=classic;startFill=1;endArrow=none;endFill=0;" edge="1" parent="1" source="OuTfgces5lwV_Rp-8tuZ-71" target="OuTfgces5lwV_Rp-8tuZ-71">
          <mxGeometry relative="1" as="geometry" />
        </mxCell>
        <mxCell id="OuTfgces5lwV_Rp-8tuZ-75" value="" style="rounded=0;orthogonalLoop=1;jettySize=auto;html=1;endArrow=halfCircle;endFill=0;endSize=6;strokeWidth=1;sketch=0;fontSize=12;curved=1;" edge="1" target="OuTfgces5lwV_Rp-8tuZ-76" parent="1">
          <mxGeometry relative="1" as="geometry">
            <mxPoint x="132" y="307.5" as="sourcePoint" />
          </mxGeometry>
        </mxCell>
        <mxCell id="OuTfgces5lwV_Rp-8tuZ-80" value="Дневник" style="edgeLabel;html=1;align=center;verticalAlign=middle;resizable=0;points=[];" vertex="1" connectable="0" parent="OuTfgces5lwV_Rp-8tuZ-75">
          <mxGeometry x="0.7407" y="-8" relative="1" as="geometry">
            <mxPoint x="-29" y="-3" as="offset" />
          </mxGeometry>
        </mxCell>
        <mxCell id="OuTfgces5lwV_Rp-8tuZ-76" value="" style="ellipse;whiteSpace=wrap;html=1;align=center;aspect=fixed;fillColor=none;strokeColor=none;resizable=0;perimeter=centerPerimeter;rotatable=0;allowArrows=0;points=[];outlineConnect=1;" vertex="1" parent="1">
          <mxGeometry x="107" y="302.5" width="10" height="10" as="geometry" />
        </mxCell>
        <mxCell id="OuTfgces5lwV_Rp-8tuZ-78" value="" style="rounded=0;orthogonalLoop=1;jettySize=auto;html=1;endArrow=oval;endFill=0;sketch=0;sourcePerimeterSpacing=0;targetPerimeterSpacing=0;endSize=10;exitX=0;exitY=0.5;exitDx=0;exitDy=0;" edge="1" target="OuTfgces5lwV_Rp-8tuZ-79" parent="1" source="OuTfgces5lwV_Rp-8tuZ-69">
          <mxGeometry relative="1" as="geometry">
            <mxPoint x="92" y="335" as="sourcePoint" />
          </mxGeometry>
        </mxCell>
        <mxCell id="OuTfgces5lwV_Rp-8tuZ-79" value="" style="ellipse;whiteSpace=wrap;html=1;align=center;aspect=fixed;fillColor=none;strokeColor=none;resizable=0;perimeter=centerPerimeter;rotatable=0;allowArrows=0;points=[];outlineConnect=1;" vertex="1" parent="1">
          <mxGeometry x="110" y="330" width="10" height="10" as="geometry" />
        </mxCell>
        <mxCell id="OuTfgces5lwV_Rp-8tuZ-81" value="Кнопки" style="edgeLabel;html=1;align=center;verticalAlign=middle;resizable=0;points=[];" vertex="1" connectable="0" parent="1">
          <mxGeometry x="87" y="342.25" as="geometry" />
        </mxCell>
        <mxCell id="OuTfgces5lwV_Rp-8tuZ-86" style="edgeStyle=orthogonalEdgeStyle;rounded=0;orthogonalLoop=1;jettySize=auto;html=1;entryX=0;entryY=0.5;entryDx=0;entryDy=0;endArrow=none;endFill=0;" edge="1" parent="1" source="OuTfgces5lwV_Rp-8tuZ-82" target="OuTfgces5lwV_Rp-8tuZ-84">
          <mxGeometry relative="1" as="geometry" />
        </mxCell>
        <mxCell id="OuTfgces5lwV_Rp-8tuZ-82" value="" style="whiteSpace=wrap;html=1;aspect=fixed;" vertex="1" parent="1">
          <mxGeometry x="227.25" y="327.25" width="15" height="15" as="geometry" />
        </mxCell>
        <mxCell id="OuTfgces5lwV_Rp-8tuZ-83" style="edgeStyle=orthogonalEdgeStyle;rounded=0;orthogonalLoop=1;jettySize=auto;html=1;entryX=1;entryY=0.5;entryDx=0;entryDy=0;exitX=0;exitY=0.5;exitDx=0;exitDy=0;" edge="1" parent="1" source="OuTfgces5lwV_Rp-8tuZ-82" target="OuTfgces5lwV_Rp-8tuZ-82">
          <mxGeometry relative="1" as="geometry" />
        </mxCell>
        <mxCell id="OuTfgces5lwV_Rp-8tuZ-88" style="edgeStyle=orthogonalEdgeStyle;rounded=0;orthogonalLoop=1;jettySize=auto;html=1;entryX=0;entryY=0.5;entryDx=0;entryDy=0;endArrow=none;endFill=0;" edge="1" parent="1" source="OuTfgces5lwV_Rp-8tuZ-84" target="OuTfgces5lwV_Rp-8tuZ-30">
          <mxGeometry relative="1" as="geometry" />
        </mxCell>
        <mxCell id="OuTfgces5lwV_Rp-8tuZ-84" value="" style="whiteSpace=wrap;html=1;aspect=fixed;" vertex="1" parent="1">
          <mxGeometry x="317.75" y="327.25" width="15" height="15" as="geometry" />
        </mxCell>
        <mxCell id="OuTfgces5lwV_Rp-8tuZ-85" style="edgeStyle=orthogonalEdgeStyle;rounded=0;orthogonalLoop=1;jettySize=auto;html=1;entryX=1;entryY=0.5;entryDx=0;entryDy=0;exitX=0;exitY=0.5;exitDx=0;exitDy=0;" edge="1" parent="1" source="OuTfgces5lwV_Rp-8tuZ-84" target="OuTfgces5lwV_Rp-8tuZ-84">
          <mxGeometry relative="1" as="geometry" />
        </mxCell>
        <mxCell id="OuTfgces5lwV_Rp-8tuZ-99" style="edgeStyle=orthogonalEdgeStyle;rounded=1;orthogonalLoop=1;jettySize=auto;html=1;entryX=0.5;entryY=1;entryDx=0;entryDy=0;endArrow=none;endFill=0;exitX=1;exitY=0.5;exitDx=0;exitDy=0;curved=0;" edge="1" parent="1" source="OuTfgces5lwV_Rp-8tuZ-89" target="OuTfgces5lwV_Rp-8tuZ-97">
          <mxGeometry relative="1" as="geometry">
            <Array as="points">
              <mxPoint x="730" y="440" />
              <mxPoint x="730" y="400" />
              <mxPoint x="777" y="400" />
              <mxPoint x="777" y="269" />
            </Array>
          </mxGeometry>
        </mxCell>
        <mxCell id="OuTfgces5lwV_Rp-8tuZ-100" value="Данные &lt;br&gt;из БД" style="edgeLabel;html=1;align=left;verticalAlign=middle;resizable=0;points=[];" vertex="1" connectable="0" parent="OuTfgces5lwV_Rp-8tuZ-99">
          <mxGeometry x="0.2495" relative="1" as="geometry">
            <mxPoint x="-41" y="-16" as="offset" />
          </mxGeometry>
        </mxCell>
        <mxCell id="OuTfgces5lwV_Rp-8tuZ-139" style="edgeStyle=orthogonalEdgeStyle;rounded=1;orthogonalLoop=1;jettySize=auto;html=1;entryX=0.5;entryY=1;entryDx=0;entryDy=0;curved=0;endArrow=none;endFill=0;" edge="1" parent="1" source="OuTfgces5lwV_Rp-8tuZ-89" target="OuTfgces5lwV_Rp-8tuZ-137">
          <mxGeometry relative="1" as="geometry" />
        </mxCell>
        <mxCell id="OuTfgces5lwV_Rp-8tuZ-89" value="" style="whiteSpace=wrap;html=1;aspect=fixed;" vertex="1" parent="1">
          <mxGeometry x="569" y="432" width="15" height="15" as="geometry" />
        </mxCell>
        <mxCell id="OuTfgces5lwV_Rp-8tuZ-90" style="edgeStyle=orthogonalEdgeStyle;rounded=0;orthogonalLoop=1;jettySize=auto;html=1;entryX=1;entryY=0.5;entryDx=0;entryDy=0;exitX=0;exitY=0.5;exitDx=0;exitDy=0;" edge="1" parent="1" source="OuTfgces5lwV_Rp-8tuZ-89" target="OuTfgces5lwV_Rp-8tuZ-89">
          <mxGeometry relative="1" as="geometry" />
        </mxCell>
        <mxCell id="OuTfgces5lwV_Rp-8tuZ-91" style="edgeStyle=orthogonalEdgeStyle;rounded=0;orthogonalLoop=1;jettySize=auto;html=1;entryX=0;entryY=0.5;entryDx=0;entryDy=0;endArrow=none;endFill=0;exitX=1;exitY=0.5;exitDx=0;exitDy=0;" edge="1" parent="1" source="OuTfgces5lwV_Rp-8tuZ-93" target="OuTfgces5lwV_Rp-8tuZ-95">
          <mxGeometry relative="1" as="geometry" />
        </mxCell>
        <mxCell id="OuTfgces5lwV_Rp-8tuZ-92" value="Записи" style="edgeLabel;html=1;align=center;verticalAlign=middle;resizable=0;points=[];" vertex="1" connectable="0" parent="OuTfgces5lwV_Rp-8tuZ-91">
          <mxGeometry x="-0.188" relative="1" as="geometry">
            <mxPoint x="5" y="9" as="offset" />
          </mxGeometry>
        </mxCell>
        <mxCell id="OuTfgces5lwV_Rp-8tuZ-93" value="" style="whiteSpace=wrap;html=1;aspect=fixed;" vertex="1" parent="1">
          <mxGeometry x="620" y="224.85" width="15" height="15" as="geometry" />
        </mxCell>
        <mxCell id="OuTfgces5lwV_Rp-8tuZ-94" style="edgeStyle=orthogonalEdgeStyle;rounded=0;orthogonalLoop=1;jettySize=auto;html=1;entryX=1;entryY=0.5;entryDx=0;entryDy=0;exitX=0;exitY=0.5;exitDx=0;exitDy=0;startArrow=classic;startFill=1;endArrow=none;endFill=0;" edge="1" parent="1" source="OuTfgces5lwV_Rp-8tuZ-93" target="OuTfgces5lwV_Rp-8tuZ-93">
          <mxGeometry relative="1" as="geometry" />
        </mxCell>
        <mxCell id="OuTfgces5lwV_Rp-8tuZ-95" value="" style="whiteSpace=wrap;html=1;aspect=fixed;" vertex="1" parent="1">
          <mxGeometry x="689" y="224.6" width="15" height="15" as="geometry" />
        </mxCell>
        <mxCell id="OuTfgces5lwV_Rp-8tuZ-96" style="edgeStyle=orthogonalEdgeStyle;rounded=0;orthogonalLoop=1;jettySize=auto;html=1;entryX=1;entryY=0.5;entryDx=0;entryDy=0;exitX=0;exitY=0.5;exitDx=0;exitDy=0;startArrow=classic;startFill=1;endArrow=none;endFill=0;" edge="1" parent="1" source="OuTfgces5lwV_Rp-8tuZ-95" target="OuTfgces5lwV_Rp-8tuZ-95">
          <mxGeometry relative="1" as="geometry" />
        </mxCell>
        <mxCell id="OuTfgces5lwV_Rp-8tuZ-97" value="" style="whiteSpace=wrap;html=1;aspect=fixed;" vertex="1" parent="1">
          <mxGeometry x="768.5" y="254.1" width="15" height="15" as="geometry" />
        </mxCell>
        <mxCell id="OuTfgces5lwV_Rp-8tuZ-98" style="edgeStyle=orthogonalEdgeStyle;rounded=0;orthogonalLoop=1;jettySize=auto;html=1;entryX=0.5;entryY=1;entryDx=0;entryDy=0;exitX=0.5;exitY=0;exitDx=0;exitDy=0;startArrow=classic;startFill=1;endArrow=none;endFill=0;" edge="1" parent="1" source="OuTfgces5lwV_Rp-8tuZ-97" target="OuTfgces5lwV_Rp-8tuZ-97">
          <mxGeometry relative="1" as="geometry" />
        </mxCell>
        <mxCell id="OuTfgces5lwV_Rp-8tuZ-101" value="Схема пользовательских данных" style="rounded=0;whiteSpace=wrap;html=1;dashed=1;dashPattern=8 8;" vertex="1" parent="1">
          <mxGeometry x="248.25" y="421.5" width="120" height="45" as="geometry" />
        </mxCell>
        <mxCell id="OuTfgces5lwV_Rp-8tuZ-102" value="Схема аутентифи-кационных данных" style="rounded=0;whiteSpace=wrap;html=1;dashed=1;dashPattern=8 8;" vertex="1" parent="1">
          <mxGeometry x="248.25" y="475" width="120" height="45" as="geometry" />
        </mxCell>
        <mxCell id="OuTfgces5lwV_Rp-8tuZ-103" value="Схема справочных данных" style="rounded=0;whiteSpace=wrap;html=1;dashed=1;dashPattern=8 8;" vertex="1" parent="1">
          <mxGeometry x="248.25" y="529" width="120" height="45" as="geometry" />
        </mxCell>
        <mxCell id="OuTfgces5lwV_Rp-8tuZ-104" value="&lt;p style=&quot;margin:0px;margin-top:4px;text-align:center;&quot;&gt;&lt;b&gt;Сервер уведомлений&lt;/b&gt;&lt;/p&gt;&lt;hr size=&quot;1&quot; style=&quot;border-style:solid;&quot;&gt;&lt;div style=&quot;height:2px;&quot;&gt;&lt;/div&gt;" style="verticalAlign=top;align=left;overflow=fill;html=1;whiteSpace=wrap;" vertex="1" parent="1">
          <mxGeometry x="723" width="110" height="80" as="geometry" />
        </mxCell>
        <mxCell id="OuTfgces5lwV_Rp-8tuZ-111" style="edgeStyle=orthogonalEdgeStyle;rounded=1;orthogonalLoop=1;jettySize=auto;html=1;entryX=1;entryY=0.5;entryDx=0;entryDy=0;exitX=1;exitY=0.5;exitDx=0;exitDy=0;endArrow=none;endFill=0;curved=0;" edge="1" parent="1" source="OuTfgces5lwV_Rp-8tuZ-107" target="OuTfgces5lwV_Rp-8tuZ-109">
          <mxGeometry relative="1" as="geometry">
            <mxPoint x="830" y="322" as="sourcePoint" />
          </mxGeometry>
        </mxCell>
        <mxCell id="OuTfgces5lwV_Rp-8tuZ-112" value="Управление &lt;br&gt;уведомлениями" style="edgeLabel;html=1;align=left;verticalAlign=middle;resizable=0;points=[];" vertex="1" connectable="0" parent="OuTfgces5lwV_Rp-8tuZ-111">
          <mxGeometry x="0.048" y="1" relative="1" as="geometry">
            <mxPoint x="-18" y="99" as="offset" />
          </mxGeometry>
        </mxCell>
        <mxCell id="OuTfgces5lwV_Rp-8tuZ-107" value="" style="whiteSpace=wrap;html=1;aspect=fixed;" vertex="1" parent="1">
          <mxGeometry x="818" y="215.35" width="15" height="15" as="geometry" />
        </mxCell>
        <mxCell id="OuTfgces5lwV_Rp-8tuZ-108" style="edgeStyle=orthogonalEdgeStyle;rounded=0;orthogonalLoop=1;jettySize=auto;html=1;entryX=1;entryY=0.5;entryDx=0;entryDy=0;exitX=0;exitY=0.5;exitDx=0;exitDy=0;startArrow=open;startFill=0;endArrow=open;endFill=0;startSize=4;endSize=4;sourcePerimeterSpacing=0;" edge="1" parent="1" source="OuTfgces5lwV_Rp-8tuZ-107" target="OuTfgces5lwV_Rp-8tuZ-107">
          <mxGeometry relative="1" as="geometry" />
        </mxCell>
        <mxCell id="OuTfgces5lwV_Rp-8tuZ-109" value="" style="whiteSpace=wrap;html=1;aspect=fixed;" vertex="1" parent="1">
          <mxGeometry x="826" y="52" width="15" height="15" as="geometry" />
        </mxCell>
        <mxCell id="OuTfgces5lwV_Rp-8tuZ-110" style="edgeStyle=orthogonalEdgeStyle;rounded=0;orthogonalLoop=1;jettySize=auto;html=1;entryX=1;entryY=0.5;entryDx=0;entryDy=0;exitX=0;exitY=0.5;exitDx=0;exitDy=0;startArrow=open;startFill=0;endArrow=open;endFill=0;startSize=4;endSize=4;sourcePerimeterSpacing=0;" edge="1" parent="1" source="OuTfgces5lwV_Rp-8tuZ-109" target="OuTfgces5lwV_Rp-8tuZ-109">
          <mxGeometry relative="1" as="geometry" />
        </mxCell>
        <mxCell id="OuTfgces5lwV_Rp-8tuZ-113" value="" style="whiteSpace=wrap;html=1;aspect=fixed;" vertex="1" parent="1">
          <mxGeometry x="383" y="203" width="15" height="15" as="geometry" />
        </mxCell>
        <mxCell id="OuTfgces5lwV_Rp-8tuZ-114" style="edgeStyle=orthogonalEdgeStyle;rounded=0;orthogonalLoop=1;jettySize=auto;html=1;entryX=1;entryY=0.5;entryDx=0;entryDy=0;exitX=0;exitY=0.5;exitDx=0;exitDy=0;startArrow=classic;startFill=1;endArrow=none;endFill=0;" edge="1" parent="1" source="OuTfgces5lwV_Rp-8tuZ-113" target="OuTfgces5lwV_Rp-8tuZ-113">
          <mxGeometry relative="1" as="geometry" />
        </mxCell>
        <mxCell id="OuTfgces5lwV_Rp-8tuZ-117" style="edgeStyle=orthogonalEdgeStyle;rounded=1;orthogonalLoop=1;jettySize=auto;html=1;entryX=1;entryY=0.5;entryDx=0;entryDy=0;endArrow=none;endFill=0;curved=0;exitX=0;exitY=0.5;exitDx=0;exitDy=0;" edge="1" parent="1" source="OuTfgces5lwV_Rp-8tuZ-115" target="OuTfgces5lwV_Rp-8tuZ-113">
          <mxGeometry relative="1" as="geometry">
            <mxPoint x="723.5064935064935" y="40.1" as="sourcePoint" />
            <mxPoint x="398" y="198.6" as="targetPoint" />
            <Array as="points">
              <mxPoint x="700" y="60" />
              <mxPoint x="410" y="60" />
              <mxPoint x="410" y="211" />
            </Array>
          </mxGeometry>
        </mxCell>
        <mxCell id="OuTfgces5lwV_Rp-8tuZ-118" value="Уведомление" style="edgeLabel;html=1;align=center;verticalAlign=middle;resizable=0;points=[];" vertex="1" connectable="0" parent="OuTfgces5lwV_Rp-8tuZ-117">
          <mxGeometry x="-0.1364" y="2" relative="1" as="geometry">
            <mxPoint y="-12" as="offset" />
          </mxGeometry>
        </mxCell>
        <mxCell id="OuTfgces5lwV_Rp-8tuZ-115" value="" style="whiteSpace=wrap;html=1;aspect=fixed;" vertex="1" parent="1">
          <mxGeometry x="716" y="52" width="15" height="15" as="geometry" />
        </mxCell>
        <mxCell id="OuTfgces5lwV_Rp-8tuZ-116" style="edgeStyle=orthogonalEdgeStyle;rounded=0;orthogonalLoop=1;jettySize=auto;html=1;entryX=1;entryY=0.5;entryDx=0;entryDy=0;exitX=0;exitY=0.5;exitDx=0;exitDy=0;startArrow=classic;startFill=1;endArrow=none;endFill=0;" edge="1" parent="1" source="OuTfgces5lwV_Rp-8tuZ-115" target="OuTfgces5lwV_Rp-8tuZ-115">
          <mxGeometry relative="1" as="geometry" />
        </mxCell>
        <mxCell id="OuTfgces5lwV_Rp-8tuZ-119" value="&lt;p style=&quot;margin:0px;margin-top:4px;text-align:center;&quot;&gt;&lt;b&gt;API формирования отчетов&lt;/b&gt;&lt;/p&gt;&lt;hr size=&quot;1&quot; style=&quot;border-style:solid;&quot;&gt;&lt;div style=&quot;height:2px;&quot;&gt;&lt;/div&gt;" style="verticalAlign=top;align=left;overflow=fill;html=1;whiteSpace=wrap;" vertex="1" parent="1">
          <mxGeometry x="559.25" y="299.75" width="130" height="78.25" as="geometry" />
        </mxCell>
        <mxCell id="OuTfgces5lwV_Rp-8tuZ-124" style="edgeStyle=orthogonalEdgeStyle;rounded=1;orthogonalLoop=1;jettySize=auto;html=1;entryX=1;entryY=0.5;entryDx=0;entryDy=0;endArrow=none;endFill=0;curved=0;exitX=1;exitY=0.5;exitDx=0;exitDy=0;" edge="1" parent="1" source="OuTfgces5lwV_Rp-8tuZ-120" target="OuTfgces5lwV_Rp-8tuZ-133">
          <mxGeometry relative="1" as="geometry">
            <mxPoint x="590.7500000000001" y="392.75" as="targetPoint" />
          </mxGeometry>
        </mxCell>
        <mxCell id="OuTfgces5lwV_Rp-8tuZ-120" value="" style="whiteSpace=wrap;html=1;aspect=fixed;" vertex="1" parent="1">
          <mxGeometry x="620" y="257" width="15" height="15" as="geometry" />
        </mxCell>
        <mxCell id="OuTfgces5lwV_Rp-8tuZ-121" style="edgeStyle=orthogonalEdgeStyle;rounded=0;orthogonalLoop=1;jettySize=auto;html=1;entryX=1;entryY=0.5;entryDx=0;entryDy=0;exitX=0;exitY=0.5;exitDx=0;exitDy=0;" edge="1" parent="1" source="OuTfgces5lwV_Rp-8tuZ-120" target="OuTfgces5lwV_Rp-8tuZ-120">
          <mxGeometry relative="1" as="geometry" />
        </mxCell>
        <mxCell id="OuTfgces5lwV_Rp-8tuZ-131" style="edgeStyle=orthogonalEdgeStyle;rounded=1;orthogonalLoop=1;jettySize=auto;html=1;entryX=1;entryY=0.5;entryDx=0;entryDy=0;endArrow=none;endFill=0;curved=0;exitX=0;exitY=0.5;exitDx=0;exitDy=0;" edge="1" parent="1" source="OuTfgces5lwV_Rp-8tuZ-127" target="OuTfgces5lwV_Rp-8tuZ-129">
          <mxGeometry relative="1" as="geometry">
            <Array as="points">
              <mxPoint x="510" y="357" />
              <mxPoint x="510" y="357" />
            </Array>
          </mxGeometry>
        </mxCell>
        <mxCell id="OuTfgces5lwV_Rp-8tuZ-132" value="Отчет" style="edgeLabel;html=1;align=center;verticalAlign=middle;resizable=0;points=[];" vertex="1" connectable="0" parent="OuTfgces5lwV_Rp-8tuZ-131">
          <mxGeometry x="-0.2918" y="-1" relative="1" as="geometry">
            <mxPoint x="26" y="8" as="offset" />
          </mxGeometry>
        </mxCell>
        <mxCell id="OuTfgces5lwV_Rp-8tuZ-127" value="" style="whiteSpace=wrap;html=1;aspect=fixed;" vertex="1" parent="1">
          <mxGeometry x="551.75" y="349.75" width="15" height="15" as="geometry" />
        </mxCell>
        <mxCell id="OuTfgces5lwV_Rp-8tuZ-128" style="edgeStyle=orthogonalEdgeStyle;rounded=0;orthogonalLoop=1;jettySize=auto;html=1;entryX=1;entryY=0.5;entryDx=0;entryDy=0;exitX=0;exitY=0.5;exitDx=0;exitDy=0;startArrow=classic;startFill=1;endArrow=none;endFill=0;" edge="1" parent="1" source="OuTfgces5lwV_Rp-8tuZ-127" target="OuTfgces5lwV_Rp-8tuZ-127">
          <mxGeometry relative="1" as="geometry" />
        </mxCell>
        <mxCell id="OuTfgces5lwV_Rp-8tuZ-129" value="" style="whiteSpace=wrap;html=1;aspect=fixed;" vertex="1" parent="1">
          <mxGeometry x="383" y="350" width="15" height="15" as="geometry" />
        </mxCell>
        <mxCell id="OuTfgces5lwV_Rp-8tuZ-130" style="edgeStyle=orthogonalEdgeStyle;rounded=0;orthogonalLoop=1;jettySize=auto;html=1;entryX=1;entryY=0.5;entryDx=0;entryDy=0;exitX=0;exitY=0.5;exitDx=0;exitDy=0;startArrow=classic;startFill=1;endArrow=none;endFill=0;" edge="1" parent="1" source="OuTfgces5lwV_Rp-8tuZ-129" target="OuTfgces5lwV_Rp-8tuZ-129">
          <mxGeometry relative="1" as="geometry" />
        </mxCell>
        <mxCell id="OuTfgces5lwV_Rp-8tuZ-133" value="" style="whiteSpace=wrap;html=1;aspect=fixed;" vertex="1" parent="1">
          <mxGeometry x="682" y="348" width="15" height="15" as="geometry" />
        </mxCell>
        <mxCell id="OuTfgces5lwV_Rp-8tuZ-134" style="edgeStyle=orthogonalEdgeStyle;rounded=0;orthogonalLoop=1;jettySize=auto;html=1;entryX=1;entryY=0.5;entryDx=0;entryDy=0;exitX=0;exitY=0.5;exitDx=0;exitDy=0;startArrow=classic;startFill=1;endArrow=none;endFill=0;" edge="1" parent="1" source="OuTfgces5lwV_Rp-8tuZ-133" target="OuTfgces5lwV_Rp-8tuZ-133">
          <mxGeometry relative="1" as="geometry" />
        </mxCell>
        <mxCell id="OuTfgces5lwV_Rp-8tuZ-135" value="" style="whiteSpace=wrap;html=1;aspect=fixed;" vertex="1" parent="1">
          <mxGeometry x="641.75" y="371" width="15" height="15" as="geometry" />
        </mxCell>
        <mxCell id="OuTfgces5lwV_Rp-8tuZ-136" style="edgeStyle=orthogonalEdgeStyle;rounded=0;orthogonalLoop=1;jettySize=auto;html=1;entryX=0.5;entryY=1;entryDx=0;entryDy=0;exitX=0.5;exitY=0;exitDx=0;exitDy=0;" edge="1" parent="1" source="OuTfgces5lwV_Rp-8tuZ-135" target="OuTfgces5lwV_Rp-8tuZ-135">
          <mxGeometry relative="1" as="geometry" />
        </mxCell>
        <mxCell id="OuTfgces5lwV_Rp-8tuZ-137" value="" style="whiteSpace=wrap;html=1;aspect=fixed;" vertex="1" parent="1">
          <mxGeometry x="609.25" y="371" width="15" height="15" as="geometry" />
        </mxCell>
        <mxCell id="OuTfgces5lwV_Rp-8tuZ-138" style="edgeStyle=orthogonalEdgeStyle;rounded=0;orthogonalLoop=1;jettySize=auto;html=1;entryX=0.5;entryY=1;entryDx=0;entryDy=0;exitX=0.5;exitY=0;exitDx=0;exitDy=0;startArrow=classic;startFill=1;endArrow=none;endFill=0;" edge="1" parent="1" source="OuTfgces5lwV_Rp-8tuZ-137" target="OuTfgces5lwV_Rp-8tuZ-137">
          <mxGeometry relative="1" as="geometry" />
        </mxCell>
      </root>
    </mxGraphModel>
  </diagram>
</mxfile>
